# xmcd CD database file
#
# Track frame offsets:
#	150
#	14329
#	32910
#	51902
#	75364
#	98035
#	120274
#	138267
#	155360
#	179170
#
# Disc length: 2613 seconds
#
# Revision: 3
# Processed by: cddbd v1.5.2PL0 Copyright (c) Steve Scherf et al.
# Submitted via: CDex 1.51
#
DISCID=760a330a
DTITLE=The James Cotton Band - High Energy
DYEAR=1975
DGENRE=Blues
TTITLE0=Hot 'N Cold
TTITLE1=Chicken Heads
TTITLE2=Hard Time Blues
TTITLE3=I Got A Feelin'
TTITLE4=Weather Report (The Weather Man Said)
TTITLE5=Keep Cooking Mama
TTITLE6=Fannie Mae
TTITLE7=Caldonia
TTITLE8=Rock 'N Roll Music (Ain't Nothing New)
TTITLE9=James' Theme
EXTD=LABEL=One Way Records OW 27671 YEAR: 1975
EXTT0=
EXTT1=
EXTT2=
EXTT3=
EXTT4=
EXTT5=
EXTT6=
EXTT7=
EXTT8=
EXTT9=
PLAYORDER=
